<svg xmlns="http://www.w3.org/2000/svg"  viewBox="0 0 64 64" width="64px" height="64px"><path d="M 17 2 C 15.351563 2 14 3.351563 14 5 L 14 10 L 10 10 C 6.691406 10 4 12.691406 4 16 L 4 48 C 4 51.308594 6.691406 54 10 54 L 14 54 L 14 60.871094 C 14 61.648438 14.441406 62.339844 15.152344 62.679688 C 15.429688 62.800781 15.71875 62.871094 16 62.871094 C 16.460938 62.871094 16.910156 62.710938 17.28125 62.402344 L 26.53125 54.699219 C 27.070313 54.25 27.75 54 28.449219 54 L 54 54 C 57.308594 54 60 51.308594 60 48 L 60 16 C 60 12.691406 57.308594 10 54 10 L 32 10 L 32 5 C 32 3.351563 30.648438 2 29 2 Z M 17 4 L 29 4 C 29.550781 4 30 4.449219 30 5 L 30 28.71875 L 24 27.21875 L 24 15 C 24 14.445313 23.550781 14 23 14 C 22.449219 14 22 14.445313 22 15 L 22 27.21875 L 16 28.71875 L 16 5 C 16 4.449219 16.449219 4 17 4 Z M 23 6 C 22.449219 6 22 6.445313 22 7 L 22 11 C 22 11.554688 22.449219 12 23 12 C 23.550781 12 24 11.554688 24 11 L 24 7 C 24 6.445313 23.550781 6 23 6 Z M 10 12 L 14 12 L 14 30.800781 C 14 31.039063 14.089844 31.28125 14.25 31.460938 L 18.871094 36.65625 C 18.875 36.660156 18.871094 36.660156 18.875 36.664063 L 22.253906 40.464844 C 22.296875 40.511719 22.355469 40.539063 22.40625 40.578125 C 22.578125 40.710938 22.777344 40.800781 23 40.800781 C 23.222656 40.800781 23.421875 40.710938 23.59375 40.578125 C 23.644531 40.539063 23.703125 40.511719 23.75 40.464844 L 27.125 36.664063 C 27.128906 36.660156 27.128906 36.660156 27.128906 36.65625 L 31.75 31.460938 C 31.910156 31.28125 32 31.039063 32 30.800781 L 32 12 L 54 12 C 56.210938 12 58 13.789063 58 16 L 58 42 L 25 42 C 24.628906 42 24.285156 42.207031 24.113281 42.535156 C 23.941406 42.867188 23.96875 43.265625 24.183594 43.574219 L 30.078125 52 L 28.449219 52 C 27.277344 52 26.140625 52.410156 25.25 53.160156 L 16 60.871094 L 16 54 C 16 52.898438 15.101563 52 14 52 L 10 52 C 7.789063 52 6 50.210938 6 48 L 6 16 C 6 13.789063 7.789063 12 10 12 Z M 23 29.03125 L 29.738281 30.714844 L 25.925781 35 L 20.074219 35 L 16.261719 30.714844 Z M 26.921875 44 L 58 44 L 58 48 C 58 50.207031 56.207031 52 54 52 L 32.519531 52 L 29.9375 48.3125 C 29.96875 48.210938 30 48.109375 30 48 L 30 47 C 30 46.445313 29.550781 46 29 46 C 28.792969 46 28.609375 46.078125 28.453125 46.1875 Z M 34 46 C 33.449219 46 33 46.445313 33 47 L 33 49 C 33 49.554688 33.449219 50 34 50 C 34.550781 50 35 49.554688 35 49 L 35 47 C 35 46.445313 34.550781 46 34 46 Z M 39 46 C 38.449219 46 38 46.445313 38 47 L 38 49 C 38 49.554688 38.449219 50 39 50 C 39.550781 50 40 49.554688 40 49 L 40 47 C 40 46.445313 39.550781 46 39 46 Z M 44 46 C 43.449219 46 43 46.445313 43 47 L 43 49 C 43 49.554688 43.449219 50 44 50 C 44.550781 50 45 49.554688 45 49 L 45 47 C 45 46.445313 44.550781 46 44 46 Z M 49 46 C 48.449219 46 48 46.445313 48 47 L 48 49 C 48 49.554688 48.449219 50 49 50 C 49.550781 50 50 49.554688 50 49 L 50 47 C 50 46.445313 49.550781 46 49 46 Z M 54 46 C 53.449219 46 53 46.445313 53 47 L 53 49 C 53 49.554688 53.449219 50 54 50 C 54.550781 50 55 49.554688 55 49 L 55 47 C 55 46.445313 54.550781 46 54 46 Z"/></svg>