<svg xmlns="http://www.w3.org/2000/svg" xmlns:xlink="http://www.w3.org/1999/xlink" viewBox="0,0,256,256" width="48px" height="48px" fill-rule="nonzero"><g fill="#faf8f8" fill-rule="nonzero" stroke="none" stroke-width="1" stroke-linecap="butt" stroke-linejoin="miter" stroke-miterlimit="10" stroke-dasharray="" stroke-dashoffset="0" font-family="none" font-weight="none" font-size="none" text-anchor="none" style="mix-blend-mode: normal"><path d="M0,256v-256h256v256z" id="bgRectangle"></path></g><g fill="none" fill-rule="nonzero" stroke="none" stroke-width="1" stroke-linecap="butt" stroke-linejoin="miter" stroke-miterlimit="10" stroke-dasharray="" stroke-dashoffset="0" font-family="none" font-weight="none" font-size="none" text-anchor="none" style="mix-blend-mode: normal"><g transform="scale(5.33333,5.33333)"><path d="M32.163,6.369c-0.64,-0.32 -1.163,0.003 -1.163,0.719v28.45l11.674,5.837c1.285,0.642 2.326,0.192 2.326,-1.005v-27.396c0,-0.115 -0.065,-0.22 -0.167,-0.271z" fill="#d0d0d0"></path><path d="M17,28.537l13.319,-21.642c0.375,-0.609 1.205,-0.846 1.844,-0.526l12.684,6.342c0.082,0.041 0.111,0.144 0.063,0.222l-13.91,22.604z" fill="#a1a1a1"></path><path d="M4.938,6.756c-1.066,-0.533 -1.427,-0.138 -0.802,0.877l12.864,20.904l14,7l-13.97,-22.701c-0.02,-0.032 -0.048,-0.058 -0.082,-0.075z" fill="#000000"></path><path d="M17,40.37c0,1.192 -0.872,1.731 -1.938,1.198l-10.899,-5.449c-0.64,-0.32 -1.163,-1.167 -1.163,-1.882v-26.716c0,-0.954 0.698,-1.385 1.551,-0.958l12.374,6.187c0.046,0.023 0.075,0.07 0.075,0.121z" fill="#575757"></path></g></g></svg>